<svg xmlns="http://www.w3.org/2000/svg" version="1.1" xmlns:xlink="http://www.w3.org/1999/xlink" xmlns:svgjs="http://svgjs.com/svgjs" width="900" height="1500" preserveAspectRatio="none" viewBox="0 0 900 1500"><g mask="url(&quot;#SvgjsMask1074&quot;)" fill="none"><path d="M522.885,1204.957C604.004,1206.683,679.985,1165.916,722.63,1096.89C767.628,1024.054,780.209,931.861,737.417,857.707C694.612,783.53,608.499,748.555,522.885,750.75C441.183,752.845,365.932,796.599,326.598,868.24C288.648,937.36,297.63,1020.567,337.342,1088.69C376.739,1156.272,444.676,1203.293,522.885,1204.957" fill="rgba(178, 237, 197, 1)" class="triangle-float3"></path><path d="M232.408,425.505C294.362,422.95,346.149,384.066,377.827,330.761C410.322,276.081,424.769,209.177,394.074,153.466C362.452,96.072,297.9,64.63,232.408,66.828C170.464,68.907,120.63,110.718,88.506,163.722C54.891,219.186,33.376,286.843,64.618,343.678C96.746,402.124,165.771,428.253,232.408,425.505" fill="rgba(178, 237, 197, 1)" class="triangle-float1"></path><path d="M270.94,1425.528C305.878,1425.601,337.903,1409.243,357.74,1380.483C381.119,1346.587,397.92,1304.474,380.008,1267.397C360.148,1226.288,316.557,1198.947,270.94,1200.808C227.847,1202.566,194.95,1236.837,176.269,1275.71C160.058,1309.442,164.776,1348.481,184.768,1380.119C203.357,1409.537,236.141,1425.455,270.94,1425.528" fill="rgba(178, 237, 197, 1)" class="triangle-float1"></path><path d="M220.36989386754016 1281.8025724832464L154.56177141538262 1496.3198338119314 346.42274950944454 1455.53852398961z" fill="rgba(178, 237, 197, 1)" class="triangle-float1"></path><path d="M331.31619875325396 973.9904518589901L526.0533026159392 866.0459125342059 223.37165942846963 779.2533479963049z" fill="rgba(178, 237, 197, 1)" class="triangle-float2"></path><path d="M741.2768000539744 1069.1739663118478L677.8392130812437 1243.4673040641142 915.5701378062407 1132.6115532845786z" fill="rgba(178, 237, 197, 1)" class="triangle-float1"></path><path d="M610.5764307482859 490.00884836168365L655.3260680586684 683.8408227545714 804.4084051411736 445.2592110513011z" fill="rgba(178, 237, 197, 1)" class="triangle-float2"></path><path d="M318.34014783587514 1047.7078086024878L180.8256019775592 914.9115552944196 48.02934866949096 1052.4261011527356 185.5438945278069 1185.2223544608037z" fill="rgba(178, 237, 197, 1)" class="triangle-float3"></path></g><defs><mask id="SvgjsMask1074"><rect width="900" height="1500" fill="#ffffff"></rect></mask><style>
            @keyframes float1 {
                0%{transform: translate(0, 0)}
                50%{transform: translate(-10px, 0)}
                100%{transform: translate(0, 0)}
            }

            .triangle-float1 {
                animation: float1 5s infinite;
            }

            @keyframes float2 {
                0%{transform: translate(0, 0)}
                50%{transform: translate(-5px, -5px)}
                100%{transform: translate(0, 0)}
            }

            .triangle-float2 {
                animation: float2 4s infinite;
            }

            @keyframes float3 {
                0%{transform: translate(0, 0)}
                50%{transform: translate(0, -10px)}
                100%{transform: translate(0, 0)}
            }

            .triangle-float3 {
                animation: float3 6s infinite;
            }
        </style></defs></svg>