<svg xmlns="http://www.w3.org/2000/svg" version="1.1" xmlns:xlink="http://www.w3.org/1999/xlink" xmlns:svgjs="http://svgjs.com/svgjs" width="1440" height="560" preserveAspectRatio="none" viewBox="0 0 1440 560"><g mask="url(&quot;#SvgjsMask2296&quot;)" fill="none"><rect width="1440" height="560" x="0" y="0" fill="url(#SvgjsLinearGradient2297)"></rect><path d="M1218.185701443541-22.610116168645394L1131.8727999749801 87.86535981634478 1242.3482759599701 174.1782612849056 1328.6611774285311 63.70278529991543z" fill="rgba(178, 237, 197, 1)" class="triangle-float2"></path><path d="M396.841,242.541C439.593,239.001,474.313,213.33,497.681,177.355C523.97,136.883,548.498,87.295,525.105,45.083C501.285,2.1,445.937,-6.73,396.841,-4.606C351.996,-2.666,311.396,18.084,286.459,55.406C257.976,98.035,236.188,152.691,262.236,196.85C288.038,240.592,346.229,246.732,396.841,242.541" fill="rgba(178, 237, 197, 1)" class="triangle-float3"></path><path d="M1068.3679496508867 94.19208452792758L942.2576257715605 85.37359162588274 933.4391328695156 211.48391550520898 1059.5494567488417 220.30240840725384z" fill="rgba(178, 237, 197, 1)" class="triangle-float3"></path><path d="M943.931,515.218C991.924,513.05,1024.608,470.875,1046.28,427.999C1065.524,389.927,1067.933,346.519,1048.362,308.614C1026.914,267.074,990.549,233.272,943.931,229.767C890.957,225.785,834.709,244.507,808.233,290.562C781.821,336.505,796.806,392.67,824.205,438.031C850.518,481.593,893.091,517.515,943.931,515.218" fill="rgba(178, 237, 197, 1)" class="triangle-float2"></path><path d="M638.755,326.432C660.452,326.275,676.627,309.306,687.921,290.779C699.846,271.216,709.22,248.116,698.995,227.613C687.852,205.269,663.713,191.49,638.755,192.187C614.844,192.855,594.902,209.495,584.075,230.824C574.239,250.201,577.554,272.634,588.343,291.498C599.221,310.519,616.844,326.59,638.755,326.432" fill="rgba(178, 237, 197, 1)" class="triangle-float3"></path><path d="M870.32,225.742C923.805,227.951,976.733,203.505,1003.545,157.173C1030.398,110.77,1023.623,53.653,996.752,7.26C969.952,-39.01,923.781,-73.857,870.32,-72.837C818.322,-71.845,776.163,-34.111,751.977,11.93C729.546,54.629,731.529,104.703,754.886,146.902C779.071,190.597,820.421,223.681,870.32,225.742" fill="rgba(178, 237, 197, 1)" class="triangle-float1"></path><path d="M170.813,420.607C191.212,421.146,209.236,408.306,219.431,390.629C229.617,372.968,231.249,351.208,221.003,333.582C210.805,316.04,191.098,307.489,170.813,306.996C149.504,306.478,126.432,312.33,116.21,331.034C106.264,349.233,115.655,370.464,126.45,388.172C136.67,404.937,151.186,420.089,170.813,420.607" fill="rgba(178, 237, 197, 1)" class="triangle-float3"></path><path d="M667.1064119268274 377.81965452872623L636.5314592300487 466.6157647351348 725.3275694364572 497.1907174319136 755.902522133236 408.394607225505z" fill="rgba(178, 237, 197, 1)" class="triangle-float1"></path></g><defs><mask id="SvgjsMask2296"><rect width="1440" height="560" fill="#ffffff"></rect></mask><linearGradient x1="50%" y1="100%" x2="50%" y2="0%" gradientUnits="userSpaceOnUse" id="SvgjsLinearGradient2297"><stop stop-color="rgba(255, 255, 255, 1)" offset="0.91"></stop><stop stop-color="rgba(178, 237, 197, 1)" offset="1"></stop></linearGradient></defs></svg>