<svg xmlns="http://www.w3.org/2000/svg" version="1.1" xmlns:xlink="http://www.w3.org/1999/xlink" xmlns:svgjs="http://svgjs.com/svgjs" width="1440" height="560" preserveAspectRatio="none" viewBox="0 0 1440 560"><g mask="url(&quot;#SvgjsMask1636&quot;)" fill="none"><rect width="1440" height="560" x="0" y="0" fill="url(#SvgjsLinearGradient1637)"></rect><path d="M781.483266861999 314.9184505291336L821.0235733260107 167.35201785859752 673.4571406554746 127.81171139458581 633.916834191463 275.3781440651219z" fill="rgba(178, 237, 197, 1)" class="triangle-float2"></path><path d="M168.369,259.356C205.16,258.486,232.024,227.838,248.908,195.139C264.237,165.45,266.97,130.29,249.813,101.619C233.08,73.656,200.946,61.35,168.369,60.552C134.07,59.712,98.016,68.436,79.709,97.452C60.327,128.172,63.502,167.254,80.948,199.113C99.166,232.381,130.45,260.253,168.369,259.356" fill="rgba(178, 237, 197, 1)" class="triangle-float1"></path><path d="M260.57271560568415 407.5435537984584L345.52319993675997 435.1456393621498 373.12528550045135 350.19515503107397 288.17480116937554 322.5930694673826z" fill="rgba(178, 237, 197, 1)" class="triangle-float2"></path><path d="M498.9008212511999 438.35979975932923L479.35389689952433 597.5567232807877 638.5508204209827 617.1036476324632 658.0977447726583 457.9067241110048z" fill="rgba(178, 237, 197, 1)" class="triangle-float1"></path><path d="M1080.049,309.971C1130.068,312.677,1177.502,283.762,1201.403,239.74C1224.335,197.503,1216.653,146.261,1191.001,105.618C1167.114,67.772,1124.786,46.221,1080.049,47.465C1037.413,48.651,1000.073,74.258,979.295,111.506C959.066,147.77,960.691,190.708,979.488,227.735C1000.497,269.118,1033.707,307.464,1080.049,309.971" fill="rgba(178, 237, 197, 1)" class="triangle-float3"></path><path d="M468.177,318.456C498.383,318.885,527.267,306.222,544.028,281.089C562.935,252.738,572.384,216.465,556.187,186.483C539.339,155.297,503.622,140.394,468.177,140.683C433.265,140.968,398.775,156.948,382.616,187.897C367.393,217.053,377.94,251.476,395.968,278.986C412.083,303.576,438.78,318.038,468.177,318.456" fill="rgba(178, 237, 197, 1)" class="triangle-float3"></path><path d="M874.8301963018195-54.27358275538219L779.4219821084513-105.00303009997458 751.0319181882469 63.474014862373856z" fill="rgba(178, 237, 197, 1)" class="triangle-float2"></path><path d="M542.1694176110448 561.1426143018522L561.8475672460808 503.9931180792482 466.28424809465685 503.0506417379962z" fill="rgba(178, 237, 197, 1)" class="triangle-float1"></path></g><defs><mask id="SvgjsMask1636"><rect width="1440" height="560" fill="#ffffff"></rect></mask><linearGradient x1="50%" y1="100%" x2="50%" y2="0%" gradientUnits="userSpaceOnUse" id="SvgjsLinearGradient1637"><stop stop-color="rgba(255, 255, 255, 1)" offset="0.87"></stop><stop stop-color="rgba(178, 237, 197, 1)" offset="1"></stop></linearGradient><style>
            @keyframes float1 {
                0%{transform: translate(0, 0)}
                50%{transform: translate(-10px, 0)}
                100%{transform: translate(0, 0)}
            }

            .triangle-float1 {
                animation: float1 5s infinite;
            }

            @keyframes float2 {
                0%{transform: translate(0, 0)}
                50%{transform: translate(-5px, -5px)}
                100%{transform: translate(0, 0)}
            }

            .triangle-float2 {
                animation: float2 4s infinite;
            }

            @keyframes float3 {
                0%{transform: translate(0, 0)}
                50%{transform: translate(0, -10px)}
                100%{transform: translate(0, 0)}
            }

            .triangle-float3 {
                animation: float3 6s infinite;
            }
        </style></defs></svg>