<svg xmlns="http://www.w3.org/2000/svg" version="1.1" xmlns:xlink="http://www.w3.org/1999/xlink" xmlns:svgjs="http://svgjs.com/svgjs" width="1000" height="1400" preserveAspectRatio="none" viewBox="0 0 1000 1400"><g mask="url(&quot;#SvgjsMask2334&quot;)" fill="none"><rect width="1000" height="1400" x="0" y="0" fill="url(#SvgjsLinearGradient2335)"></rect><path d="M85.93967352929641 830.5271357974918L144.64722822779123 720.1142839602652-50.32582687729605 687.2593778311364z" fill="rgba(178, 237, 197, 1)" class="triangle-float3"></path><path d="M340.06,1194.987C375.302,1195.397,412.787,1190.202,432.719,1161.136C455.133,1128.45,458.219,1085.171,439.214,1050.392C419.463,1014.247,381.098,988.05,340.06,991.569C303.025,994.744,283.992,1032.374,266.547,1065.197C250.603,1095.197,234.318,1129.46,251.062,1159.022C267.963,1188.862,305.768,1194.588,340.06,1194.987" fill="rgba(178, 237, 197, 1)" class="triangle-float3"></path><path d="M812.8817292090472 681.7881690829436L631.8343083423323 850.6176203474697 800.6637596068584 1031.6650412141846 981.7111804735733 862.8355899496585z" fill="rgba(178, 237, 197, 1)" class="triangle-float1"></path><path d="M184.207,1383.423C213.504,1385.184,247.058,1382.623,262.143,1357.446C277.482,1331.844,264.066,1300.804,249.219,1274.914C234.27,1248.846,214.22,1223.043,184.207,1221.546C152.058,1219.942,121.208,1238.981,106.897,1267.814C93.816,1294.169,104.612,1324.502,120.968,1348.96C135.271,1370.348,158.523,1381.879,184.207,1383.423" fill="rgba(178, 237, 197, 1)" class="triangle-float3"></path><path d="M796.909,1032.389C896.574,1038.025,1011.131,1031.622,1062.673,946.134C1115.22,858.979,1072.568,750.983,1018.591,664.707C968.566,584.747,891.088,526.475,796.909,521.341C692.666,515.658,579.268,546.518,528.997,638.016C479.953,727.281,521.325,834.51,578.559,918.759C627.975,991.501,709.109,1027.424,796.909,1032.389" fill="rgba(178, 237, 197, 1)" class="triangle-float1"></path><path d="M48.18755555925922 129.0960631050964L248.43816305279717 35.949908704989184 92.24839094319442-77.5286031721028z" fill="rgba(178, 237, 197, 1)" class="triangle-float1"></path><path d="M940.1429690641651 1147.7300508558537L936.9429168759759 964.3991837780719 753.6120497981942 967.599235966261 756.8121019863833 1150.9301030440429z" fill="rgba(178, 237, 197, 1)" class="triangle-float1"></path><path d="M1013.447,1183.791C1076.892,1182.647,1140.684,1160.96,1173.408,1106.594C1207.067,1050.674,1202.676,980.356,1169.857,923.938C1137.229,867.849,1078.278,828.872,1013.447,831.612C952.456,834.19,910.015,884.051,878.374,936.256C845.085,991.181,812.412,1056.168,843.176,1112.547C874.762,1170.432,947.516,1184.979,1013.447,1183.791" fill="rgba(178, 237, 197, 1)" class="triangle-float2"></path><path d="M1206.1353787654043 446.9258134885558L1091.1054438285862 188.5643495206532 947.7739147975017 561.9557484253738z" fill="rgba(178, 237, 197, 1)" class="triangle-float3"></path><path d="M942.2349934987178 540.9176790980581L920.3790272881542 291.1028421839336 670.5641903740297 312.95880839449717 692.4201565845933 562.7736453086217z" fill="rgba(178, 237, 197, 1)" class="triangle-float3"></path><path d="M96.32517211813865 436.06598476284256L-60.85194690592954 427.8286810006849-69.08925066808717 585.0058000247532 88.08786835598102 593.2431037869108z" fill="rgba(178, 237, 197, 1)" class="triangle-float3"></path></g><defs><mask id="SvgjsMask2334"><rect width="1000" height="1400" fill="#ffffff"></rect></mask><linearGradient x1="50%" y1="100%" x2="50%" y2="0%" gradientUnits="userSpaceOnUse" id="SvgjsLinearGradient2335"><stop stop-color="rgba(255, 255, 255, 1)" offset="0.91"></stop><stop stop-color="rgba(178, 237, 197, 1)" offset="1"></stop></linearGradient><style>
            @keyframes float1 {
                0%{transform: translate(0, 0)}
                50%{transform: translate(-10px, 0)}
                100%{transform: translate(0, 0)}
            }

            .triangle-float1 {
                animation: float1 5s infinite;
            }

            @keyframes float2 {
                0%{transform: translate(0, 0)}
                50%{transform: translate(-5px, -5px)}
                100%{transform: translate(0, 0)}
            }

            .triangle-float2 {
                animation: float2 4s infinite;
            }

            @keyframes float3 {
                0%{transform: translate(0, 0)}
                50%{transform: translate(0, -10px)}
                100%{transform: translate(0, 0)}
            }

            .triangle-float3 {
                animation: float3 6s infinite;
            }
        </style></defs></svg>